<svg width="245" height="210" viewBox="0 0 245 210" fill="none" xmlns="http://www.w3.org/2000/svg">
<g filter="url(#filter0_g_18_49)">
<path d="M89.3078 124.591C89.178 124.619 89.0622 124.564 88.9605 124.426C88.8664 124.286 88.8103 124.175 88.7921 124.091C88.736 123.831 88.8315 123.662 89.0785 123.585C89.4368 123.468 89.7844 123.301 90.1212 123.084C90.4657 122.866 90.6107 122.631 90.5563 122.379L87.9027 110.1C87.8318 109.771 87.6928 109.553 87.4858 109.446C87.2772 109.332 87.0343 109.28 86.7571 109.292C86.4783 109.296 86.1998 109.321 85.9216 109.365C85.7579 109.384 85.6406 109.377 85.5696 109.345C85.5046 109.303 85.4539 109.198 85.4176 109.03C85.3995 108.946 85.4045 108.821 85.4325 108.655C85.4683 108.488 85.551 108.39 85.6808 108.362L93.5271 106.666C93.6569 106.638 93.7688 106.694 93.8629 106.833C93.9647 106.971 94.0246 107.082 94.0428 107.166C94.1038 107.449 94.0083 107.617 93.7564 107.672C93.3211 107.766 92.9459 107.879 92.6307 108.011C92.3156 108.143 92.0799 108.31 91.9236 108.511C91.7733 108.704 91.7287 108.941 91.7898 109.224L94.4136 121.365C94.4945 121.739 94.6457 121.958 94.8674 122.022C95.0874 122.079 95.3386 122.076 95.6212 122.015L98.7597 121.337C99.1186 121.26 99.4291 120.977 99.6912 120.488C99.9594 119.991 100.177 119.408 100.345 118.741C100.52 118.071 100.639 117.442 100.704 116.853C100.72 116.705 100.829 116.582 101.032 116.482C101.24 116.373 101.405 116.306 101.527 116.279C101.672 116.248 101.829 116.25 101.996 116.286C102.162 116.314 102.251 116.394 102.264 116.527L102.675 121.702L89.3078 124.591ZM117.236 103.809L118.98 111.992C119.252 113.252 119.242 114.405 118.949 115.452C118.661 116.489 118.112 117.367 117.3 118.086C116.486 118.797 115.427 119.294 114.121 119.576C112.685 119.886 111.352 119.967 110.121 119.817C108.888 119.66 107.839 119.171 106.974 118.351C106.11 117.531 105.496 116.281 105.133 114.601L103.446 106.741C103.375 106.412 103.236 106.194 103.029 106.087C102.821 105.973 102.585 105.919 102.324 105.928C102.068 105.927 101.82 105.945 101.58 105.981C101.416 106 101.299 105.994 101.228 105.961C101.163 105.919 101.112 105.814 101.076 105.646C101.058 105.562 101.063 105.437 101.091 105.271C101.126 105.104 101.209 105.006 101.339 104.978L108.601 103.409C108.731 103.381 108.843 103.436 108.937 103.576C109.039 103.714 109.099 103.825 109.117 103.909C109.173 104.168 109.077 104.337 108.83 104.414C108.574 104.485 108.314 104.578 108.051 104.69C107.787 104.803 107.571 104.93 107.402 105.071C107.24 105.209 107.177 105.363 107.213 105.531L109.041 114.044C109.458 115.976 110.061 117.268 110.85 117.921C111.638 118.574 112.667 118.764 113.934 118.49C115.064 118.245 115.927 117.799 116.522 117.151C117.118 116.503 117.491 115.755 117.644 114.906C117.802 114.049 117.787 113.185 117.599 112.314L115.792 103.953C115.736 103.693 115.568 103.526 115.288 103.45C115.006 103.367 114.699 103.334 114.367 103.35C114.041 103.356 113.768 103.371 113.549 103.394C113.386 103.414 113.268 103.407 113.197 103.374C113.132 103.333 113.082 103.228 113.046 103.06C113.027 102.976 113.032 102.851 113.06 102.685C113.096 102.517 113.179 102.419 113.309 102.391L118.658 101.235C118.788 101.207 118.9 101.263 118.994 101.403C119.096 101.54 119.155 101.651 119.174 101.735C119.233 102.01 119.138 102.179 118.887 102.241C118.304 102.391 117.861 102.598 117.559 102.864C117.264 103.127 117.157 103.442 117.236 103.809ZM124.53 116.979C124.4 117.007 124.284 116.952 124.183 116.814C124.089 116.675 124.032 116.563 124.014 116.479C123.96 116.227 124.055 116.059 124.301 115.974C124.601 115.885 124.899 115.784 125.195 115.672C125.49 115.561 125.725 115.41 125.9 115.22C126.081 115.021 126.137 114.762 126.068 114.441L123.468 102.414C123.398 102.085 123.232 101.873 122.971 101.778C122.709 101.675 122.413 101.635 122.082 101.658C121.75 101.674 121.441 101.705 121.155 101.751C120.991 101.77 120.874 101.763 120.803 101.731C120.738 101.689 120.688 101.584 120.651 101.416C120.633 101.332 120.639 101.211 120.669 101.053C120.704 100.885 120.786 100.783 120.914 100.748L128.245 99.1635L128.258 99.2208L134.402 109.067L135.966 98.5502C135.981 98.435 135.987 98.2617 135.985 98.0304C135.983 97.799 135.969 97.6223 135.943 97.5001L142.552 96.0718C142.681 96.0438 142.793 96.0995 142.888 96.2391C142.989 96.3769 143.049 96.4879 143.067 96.5719C143.122 96.8239 143.026 96.9924 142.781 97.0774C142.398 97.1921 142.039 97.3416 141.703 97.5261C141.366 97.7029 141.224 97.9174 141.278 98.1694L143.957 110.563C144.028 110.891 144.174 111.107 144.397 111.211C144.619 111.315 144.869 111.361 145.146 111.349C145.431 111.335 145.691 111.319 145.926 111.3C146.09 111.281 146.204 111.288 146.267 111.323C146.338 111.355 146.392 111.459 146.43 111.635C146.449 111.719 146.44 111.845 146.404 112.012C146.376 112.178 146.297 112.275 146.167 112.303L138.779 113.9C138.649 113.928 138.534 113.873 138.432 113.735C138.338 113.596 138.282 113.484 138.263 113.4C138.209 113.148 138.304 112.979 138.55 112.894C138.789 112.819 139.041 112.728 139.306 112.623C139.57 112.51 139.786 112.383 139.956 112.243C140.133 112.101 140.203 111.946 140.167 111.778L137.372 98.8456L137.052 98.9149L134.724 114.776L134.071 114.917L124.898 101.541L124.463 101.635L127.176 114.189C127.247 114.518 127.425 114.731 127.71 114.829C127.993 114.92 128.312 114.951 128.665 114.922C129.019 114.894 129.336 114.862 129.615 114.825C129.779 114.806 129.893 114.813 129.956 114.847C130.027 114.88 130.081 114.984 130.119 115.16C130.138 115.244 130.129 115.37 130.093 115.537C130.065 115.703 129.986 115.8 129.856 115.828L124.53 116.979ZM148.951 111.702C148.821 111.73 148.705 111.675 148.603 111.537C148.509 111.398 148.453 111.286 148.435 111.202C148.38 110.95 148.476 110.781 148.721 110.696C149.081 110.587 149.434 110.442 149.779 110.264C150.13 110.076 150.278 109.856 150.224 109.604L147.557 97.2082C147.486 96.8799 147.336 96.6646 147.106 96.5624C146.882 96.4509 146.631 96.4012 146.354 96.4131C146.075 96.4174 145.816 96.4375 145.576 96.4734C145.412 96.4928 145.295 96.4862 145.224 96.4535C145.159 96.4116 145.108 96.3067 145.072 96.1387C145.054 96.0547 145.059 95.9297 145.087 95.7638C145.122 95.5962 145.205 95.4984 145.335 95.4704L152.609 93.8985C152.738 93.8705 152.85 93.9262 152.944 94.0657C153.046 94.2036 153.106 94.3146 153.124 94.3986C153.179 94.6506 153.083 94.8191 152.838 94.9041C152.455 95.0188 152.096 95.1683 151.76 95.3528C151.422 95.5296 151.281 95.7441 151.335 95.996L154.002 108.392C154.073 108.72 154.221 108.94 154.445 109.052C154.674 109.154 154.928 109.199 155.205 109.187C155.49 109.174 155.749 109.154 155.983 109.127C156.147 109.108 156.261 109.115 156.324 109.149C156.395 109.182 156.449 109.286 156.487 109.462C156.505 109.546 156.497 109.671 156.461 109.839C156.433 110.005 156.354 110.102 156.224 110.13L148.951 111.702ZM158.721 109.59C158.591 109.618 158.476 109.564 158.374 109.426C158.28 109.286 158.224 109.174 158.205 109.09C158.151 108.838 158.246 108.67 158.492 108.585C158.731 108.509 159.009 108.409 159.326 108.285C159.651 108.159 159.925 108.003 160.149 107.819C160.371 107.627 160.456 107.409 160.403 107.165L157.908 95.6188C157.837 95.2904 157.641 95.033 157.321 94.8463C157 94.6521 156.65 94.5158 156.274 94.4373C155.897 94.3588 155.588 94.3337 155.346 94.362C155.183 94.3813 155.065 94.3747 154.994 94.3421C154.929 94.3002 154.879 94.1953 154.842 94.0273C154.824 93.9433 154.829 93.8183 154.857 93.6524C154.893 93.4848 154.976 93.387 155.106 93.3589L160.695 92.151L172.33 101.051L172.467 101.021L170.569 92.2354C170.498 91.907 170.321 91.6975 170.037 91.6069C169.754 91.5162 169.443 91.4835 169.105 91.5086C168.773 91.5245 168.486 91.5465 168.244 91.5748C168.08 91.5942 167.963 91.5876 167.892 91.5549C167.827 91.513 167.776 91.4081 167.74 91.2401C167.722 91.1561 167.727 91.0311 167.755 90.8652C167.791 90.6976 167.873 90.5998 168.003 90.5718L173.444 89.396C173.574 89.3679 173.686 89.4237 173.78 89.5632C173.882 89.7011 173.942 89.812 173.96 89.896C174.014 90.148 173.919 90.3165 173.673 90.4015C173.449 90.4739 173.184 90.5791 172.878 90.7172C172.58 90.8536 172.328 91.0199 172.123 91.2161C171.916 91.4047 171.84 91.6288 171.897 91.8885L174.684 104.786C174.715 104.931 174.749 105.052 174.786 105.148C174.821 105.236 174.87 105.389 174.933 105.607C175.02 105.9 174.92 106.138 174.632 106.32C174.345 106.51 174.083 106.63 173.846 106.681C173.572 106.741 173.347 106.701 173.173 106.563L159.78 96.2932L159.585 96.3353L161.826 106.702C161.896 107.03 162.093 107.235 162.414 107.318C162.736 107.4 163.085 107.424 163.461 107.391C163.838 107.358 164.144 107.332 164.379 107.313C164.543 107.293 164.657 107.301 164.72 107.335C164.791 107.368 164.845 107.472 164.883 107.647C164.902 107.731 164.893 107.857 164.857 108.025C164.829 108.191 164.75 108.288 164.62 108.316L158.721 109.59ZM177.735 105.481C177.613 105.508 177.505 105.471 177.412 105.371C177.317 105.264 177.253 105.134 177.22 104.981C177.182 104.806 177.188 104.688 177.24 104.629C177.283 104.572 177.383 104.518 177.54 104.468C177.726 104.404 177.929 104.344 178.149 104.289C178.377 104.232 178.578 104.128 178.753 103.979C178.935 103.819 179.051 103.563 179.102 103.208L181.442 87.4039L184.122 86.8246L192.722 100.265C192.926 100.58 193.147 100.772 193.386 100.841C193.63 100.9 193.871 100.904 194.107 100.852C194.352 100.8 194.568 100.765 194.756 100.748C194.92 100.729 195.034 100.736 195.097 100.77C195.168 100.803 195.222 100.907 195.26 101.083C195.278 101.167 195.27 101.293 195.234 101.46C195.206 101.626 195.127 101.723 194.997 101.751L187.872 103.291C187.743 103.319 187.627 103.264 187.525 103.126C187.431 102.987 187.375 102.875 187.357 102.791C187.302 102.539 187.398 102.37 187.643 102.285C188.089 102.165 188.441 102.073 188.699 102.009C188.955 101.938 189.065 101.818 189.029 101.65C189.017 101.597 188.992 101.538 188.955 101.474L186.433 97.4633L187.093 97.7404L180.79 99.0904L181.254 98.4626L180.616 103.276C180.604 103.335 180.604 103.387 180.614 103.433C180.653 103.616 180.839 103.68 181.171 103.624C181.502 103.568 181.903 103.502 182.374 103.424C182.633 103.4 182.789 103.514 182.844 103.766C182.862 103.85 182.853 103.976 182.817 104.143C182.789 104.309 182.71 104.406 182.581 104.434L177.735 105.481ZM181.276 98.0623L181.061 98.0128L186.502 96.837L186.169 97.0168L182.407 90.2046L181.276 98.0623Z" fill="#FF9045"/>
</g>
<defs>
<filter id="filter0_g_18_49" x="0.437057" y="0.361252" width="279.824" height="209.482" filterUnits="userSpaceOnUse" color-interpolation-filters="sRGB">
<feFlood flood-opacity="0" result="BackgroundImageFix"/>
<feBlend mode="normal" in="SourceGraphic" in2="BackgroundImageFix" result="shape"/>
<feTurbulence type="fractalNoise" baseFrequency="0.04716980829834938 0.04716980829834938" numOctaves="3" seed="7934" />
<feDisplacementMap in="shape" scale="169.60000610351562" xChannelSelector="R" yChannelSelector="G" result="displacedImage" width="100%" height="100%" />
<feMerge result="effect1_texture_18_49">
<feMergeNode in="displacedImage"/>
</feMerge>
</filter>
</defs>
</svg>
