<svg width="247" height="210" viewBox="0 0 247 210" fill="none" xmlns="http://www.w3.org/2000/svg">
<g filter="url(#filter0_g_18_50)">
<path d="M55.3078 124.591C55.178 124.619 55.0622 124.564 54.9605 124.426C54.8664 124.287 54.8103 124.175 54.7921 124.091C54.736 123.831 54.8315 123.663 55.0785 123.585C55.4368 123.468 55.7844 123.301 56.1212 123.084C56.4657 122.866 56.6107 122.631 56.5563 122.379L53.9027 110.1C53.8318 109.771 53.6928 109.554 53.4858 109.446C53.2772 109.332 53.0343 109.28 52.7571 109.292C52.4783 109.296 52.1998 109.321 51.9216 109.365C51.7579 109.384 51.6406 109.378 51.5696 109.345C51.5046 109.303 51.4539 109.198 51.4176 109.03C51.3995 108.946 51.4045 108.821 51.4325 108.655C51.4683 108.488 51.551 108.39 51.6808 108.362L59.5271 106.666C59.6569 106.638 59.7688 106.694 59.8629 106.833C59.9647 106.971 60.0246 107.082 60.0428 107.166C60.1038 107.449 60.0083 107.617 59.7564 107.672C59.3211 107.766 58.9459 107.879 58.6307 108.011C58.3156 108.143 58.0799 108.31 57.9236 108.511C57.7733 108.704 57.7287 108.941 57.7898 109.224L60.4136 121.365C60.4945 121.739 60.6457 121.959 60.8674 122.023C61.0874 122.079 61.3386 122.077 61.6212 122.016L64.7597 121.337C65.1186 121.26 65.4291 120.977 65.6912 120.489C65.9594 119.991 66.1772 119.408 66.3446 118.741C66.5197 118.072 66.6395 117.442 66.7039 116.853C66.72 116.705 66.8292 116.582 67.0315 116.482C67.2397 116.373 67.405 116.306 67.5271 116.279C67.6722 116.248 67.8286 116.25 67.9961 116.286C68.1621 116.314 68.2514 116.394 68.2642 116.528L68.675 121.702L55.3078 124.591ZM83.2358 103.809L84.9802 111.992C85.2525 113.252 85.242 114.405 84.9486 115.452C84.6612 116.489 84.1116 117.367 83.2998 118.086C82.4864 118.797 81.4268 119.294 80.121 119.576C78.6854 119.887 77.352 119.967 76.1207 119.817C74.8878 119.66 73.839 119.171 72.9744 118.351C72.1098 117.531 71.4959 116.281 71.1329 114.601L69.4463 106.741C69.3753 106.412 69.2364 106.195 69.0294 106.087C68.8207 105.973 68.5855 105.92 68.3236 105.928C68.0677 105.928 67.8197 105.945 67.5797 105.981C67.416 106 67.2987 105.994 67.2277 105.961C67.1627 105.919 67.112 105.814 67.0757 105.646C67.0576 105.562 67.0625 105.437 67.0906 105.272C67.1264 105.104 67.2091 105.006 67.3389 104.978L74.601 103.409C74.7308 103.381 74.8428 103.436 74.9369 103.576C75.0386 103.714 75.0985 103.825 75.1167 103.909C75.1728 104.168 75.0773 104.337 74.8303 104.414C74.5739 104.486 74.3141 104.578 74.0507 104.691C73.7874 104.803 73.571 104.93 73.4015 105.071C73.2397 105.21 73.177 105.363 73.2133 105.531L75.041 114.044C75.4585 115.976 76.0615 117.268 76.85 117.921C77.6385 118.574 78.6665 118.764 79.9341 118.49C81.0643 118.245 81.927 117.799 82.5223 117.151C83.1176 116.503 83.4914 115.755 83.6438 114.907C83.8022 114.049 83.7873 113.185 83.5992 112.314L81.7922 103.953C81.7361 103.693 81.568 103.526 81.288 103.45C81.0063 103.367 80.6993 103.334 80.367 103.35C80.0408 103.356 79.7682 103.371 79.5495 103.394C79.3858 103.414 79.2685 103.407 79.1975 103.375C79.1325 103.333 79.0818 103.228 79.0455 103.06C79.0274 102.976 79.0323 102.851 79.0604 102.685C79.0961 102.517 79.1789 102.419 79.3087 102.391L84.6579 101.235C84.7877 101.207 84.8997 101.263 84.9938 101.403C85.0955 101.541 85.1554 101.651 85.1736 101.735C85.233 102.01 85.1375 102.179 84.8872 102.241C84.3041 102.391 83.8614 102.598 83.5591 102.864C83.2643 103.127 83.1566 103.442 83.2358 103.809ZM90.5299 116.979C90.4001 117.007 90.2843 116.952 90.1826 116.815C90.0885 116.675 90.0324 116.563 90.0143 116.479C89.9598 116.227 90.0553 116.059 90.3007 115.974C90.6012 115.885 90.8992 115.784 91.1947 115.673C91.4903 115.561 91.7255 115.41 91.9003 115.22C92.0811 115.021 92.1368 114.762 92.0675 114.441L89.4685 102.414C89.3975 102.086 89.2318 101.874 88.9714 101.778C88.7093 101.675 88.4129 101.635 88.0823 101.658C87.75 101.674 87.441 101.705 87.1551 101.751C86.9915 101.77 86.8742 101.764 86.8032 101.731C86.7382 101.689 86.6875 101.584 86.6512 101.416C86.6331 101.332 86.6388 101.211 86.6686 101.053C86.7043 100.885 86.7862 100.783 86.9144 100.748L94.2452 99.1636L94.2576 99.2209L100.402 109.067L101.966 98.5503C101.981 98.4351 101.987 98.2619 101.985 98.0305C101.983 97.7992 101.969 97.6224 101.943 97.5002L108.552 96.072C108.681 96.0439 108.793 96.0997 108.888 96.2392C108.989 96.377 109.049 96.488 109.067 96.572C109.122 96.824 109.026 96.9925 108.781 97.0775C108.398 97.1922 108.039 97.3418 107.703 97.5262C107.366 97.7031 107.224 97.9175 107.278 98.1695L109.957 110.563C110.028 110.891 110.174 111.108 110.397 111.211C110.619 111.315 110.869 111.361 111.146 111.349C111.431 111.336 111.691 111.319 111.926 111.3C112.09 111.281 112.204 111.288 112.267 111.323C112.338 111.355 112.392 111.459 112.43 111.635C112.449 111.719 112.44 111.845 112.404 112.012C112.376 112.178 112.297 112.275 112.167 112.303L104.779 113.9C104.649 113.928 104.534 113.873 104.432 113.735C104.338 113.596 104.282 113.484 104.263 113.4C104.209 113.148 104.304 112.979 104.55 112.894C104.789 112.819 105.041 112.728 105.306 112.623C105.57 112.51 105.786 112.384 105.956 112.243C106.133 112.101 106.203 111.946 106.167 111.778L103.372 98.8458L103.052 98.9151L100.724 114.776L100.071 114.917L90.8985 101.541L90.4632 101.635L93.1761 114.189C93.2471 114.518 93.4251 114.731 93.7101 114.829C93.9934 114.92 94.3119 114.951 94.6654 114.923C95.0189 114.894 95.3356 114.862 95.6155 114.825C95.7791 114.806 95.8926 114.813 95.956 114.848C96.027 114.88 96.0815 114.984 96.1194 115.16C96.1376 115.244 96.1288 115.37 96.0931 115.537C96.065 115.703 95.986 115.8 95.8562 115.828L90.5299 116.979ZM114.951 111.702C114.821 111.73 114.705 111.675 114.603 111.537C114.509 111.398 114.453 111.286 114.435 111.202C114.38 110.95 114.476 110.781 114.721 110.696C115.081 110.587 115.434 110.443 115.779 110.264C116.13 110.076 116.278 109.856 116.224 109.604L113.557 97.2083C113.486 96.88 113.336 96.6647 113.106 96.5625C112.882 96.4511 112.631 96.4013 112.354 96.4132C112.075 96.4175 111.816 96.4376 111.576 96.4735C111.412 96.4929 111.295 96.4863 111.224 96.4537C111.159 96.4118 111.108 96.3068 111.072 96.1388C111.054 96.0548 111.059 95.9298 111.087 95.7639C111.122 95.5963 111.205 95.4985 111.335 95.4705L118.609 93.8987C118.738 93.8706 118.85 93.9263 118.944 94.0659C119.046 94.2037 119.106 94.3147 119.124 94.3987C119.179 94.6507 119.083 94.8192 118.838 94.9042C118.455 95.0189 118.096 95.1685 117.76 95.3529C117.422 95.5298 117.281 95.7442 117.335 95.9962L120.002 108.392C120.073 108.721 120.221 108.941 120.445 109.052C120.674 109.154 120.928 109.199 121.205 109.187C121.49 109.174 121.749 109.154 121.983 109.127C122.147 109.108 122.261 109.115 122.324 109.149C122.395 109.182 122.449 109.286 122.487 109.462C122.505 109.546 122.497 109.672 122.461 109.839C122.433 110.005 122.354 110.102 122.224 110.13L114.951 111.702ZM124.721 109.59C124.591 109.619 124.476 109.564 124.374 109.426C124.28 109.286 124.224 109.174 124.205 109.09C124.151 108.838 124.246 108.67 124.492 108.585C124.731 108.509 125.009 108.409 125.326 108.285C125.651 108.159 125.925 108.004 126.149 107.819C126.371 107.627 126.456 107.409 126.403 107.165L123.908 95.6189C123.837 95.2906 123.641 95.0331 123.321 94.8465C123 94.6522 122.65 94.5159 122.274 94.4374C121.897 94.3589 121.588 94.3338 121.346 94.3621C121.183 94.3815 121.065 94.3748 120.994 94.3422C120.929 94.3003 120.879 94.1954 120.842 94.0274C120.824 93.9434 120.829 93.8184 120.857 93.6525C120.893 93.4849 120.976 93.3871 121.106 93.3591L126.695 92.1511L138.33 101.051L138.467 101.021L136.569 92.2355C136.498 91.9071 136.321 91.6976 136.037 91.607C135.754 91.5164 135.443 91.4836 135.105 91.5088C134.773 91.5246 134.486 91.5467 134.244 91.5749C134.08 91.5943 133.963 91.5877 133.892 91.5551C133.827 91.5132 133.776 91.4082 133.74 91.2402C133.722 91.1562 133.727 91.0312 133.755 90.8653C133.791 90.6977 133.873 90.5999 134.003 90.5719L139.444 89.3961C139.574 89.3681 139.686 89.4238 139.78 89.5633C139.882 89.7012 139.942 89.8121 139.96 89.8961C140.014 90.1481 139.919 90.3166 139.673 90.4016C139.449 90.474 139.184 90.5793 138.878 90.7173C138.58 90.8537 138.328 91.02 138.123 91.2162C137.916 91.4048 137.84 91.629 137.897 91.8886L140.684 104.786C140.715 104.931 140.749 105.052 140.786 105.148C140.821 105.236 140.87 105.389 140.933 105.608C141.02 105.9 140.92 106.138 140.632 106.32C140.345 106.51 140.083 106.63 139.846 106.682C139.572 106.741 139.347 106.702 139.173 106.563L125.78 96.2934L125.585 96.3354L127.826 106.702C127.896 107.03 128.093 107.235 128.414 107.318C128.736 107.4 129.085 107.425 129.461 107.391C129.838 107.358 130.144 107.332 130.379 107.313C130.543 107.293 130.657 107.301 130.72 107.335C130.791 107.368 130.845 107.472 130.883 107.647C130.902 107.731 130.893 107.857 130.857 108.025C130.829 108.191 130.75 108.288 130.62 108.316L124.721 109.59ZM143.735 105.482C143.613 105.508 143.505 105.471 143.412 105.372C143.317 105.264 143.253 105.134 143.22 104.981C143.182 104.806 143.188 104.689 143.24 104.63C143.283 104.572 143.383 104.519 143.54 104.469C143.726 104.404 143.929 104.345 144.149 104.289C144.377 104.232 144.578 104.128 144.753 103.979C144.935 103.82 145.051 103.563 145.102 103.208L147.442 87.404L150.122 86.8248L158.722 100.265C158.926 100.58 159.147 100.772 159.386 100.841C159.63 100.9 159.871 100.904 160.107 100.852C160.352 100.8 160.568 100.765 160.756 100.748C160.92 100.729 161.034 100.736 161.097 100.771C161.168 100.803 161.222 100.907 161.26 101.083C161.278 101.167 161.27 101.293 161.234 101.46C161.206 101.626 161.127 101.723 160.997 101.751L153.872 103.291C153.743 103.319 153.627 103.264 153.525 103.126C153.431 102.987 153.375 102.875 153.357 102.791C153.302 102.539 153.398 102.37 153.643 102.285C154.089 102.165 154.441 102.073 154.699 102.009C154.955 101.938 155.065 101.818 155.029 101.65C155.017 101.597 154.992 101.538 154.955 101.474L152.433 97.4634L153.093 97.7405L146.79 99.0905L147.254 98.4627L146.616 103.276C146.604 103.335 146.604 103.387 146.614 103.433C146.653 103.616 146.839 103.68 147.171 103.624C147.502 103.568 147.903 103.502 148.374 103.424C148.633 103.4 148.789 103.514 148.844 103.766C148.862 103.85 148.853 103.976 148.817 104.143C148.789 104.309 148.71 104.406 148.581 104.434L143.735 105.482ZM147.276 98.0624L147.061 98.0129L152.502 96.8371L152.169 97.017L148.407 90.2048L147.276 98.0624Z" fill="#FF9045"/>
</g>
<defs>
<filter id="filter0_g_18_50" x="-33.5629" y="0.361374" width="279.824" height="209.482" filterUnits="userSpaceOnUse" color-interpolation-filters="sRGB">
<feFlood flood-opacity="0" result="BackgroundImageFix"/>
<feBlend mode="normal" in="SourceGraphic" in2="BackgroundImageFix" result="shape"/>
<feTurbulence type="fractalNoise" baseFrequency="0.04716980829834938 0.04716980829834938" numOctaves="3" seed="7934" />
<feDisplacementMap in="shape" scale="169.60000610351562" xChannelSelector="R" yChannelSelector="G" result="displacedImage" width="100%" height="100%" />
<feMerge result="effect1_texture_18_50">
<feMergeNode in="displacedImage"/>
</feMerge>
</filter>
</defs>
</svg>
