<svg width="260" height="216" viewBox="0 0 260 216" fill="none" xmlns="http://www.w3.org/2000/svg">
<g filter="url(#filter0_g_5_22)">
<path d="M63.5592 127.982C63.4263 128.011 63.3077 127.954 63.2035 127.813C63.1071 127.67 63.0497 127.556 63.0311 127.47C62.9736 127.204 63.0714 127.031 63.3244 126.952C63.6914 126.832 64.0473 126.661 64.3923 126.439C64.7451 126.215 64.8936 125.974 64.8379 125.716L62.1202 113.14C62.0475 112.804 61.9051 112.581 61.6932 112.471C61.4795 112.354 61.2307 112.301 60.9468 112.313C60.6612 112.318 60.376 112.342 60.0911 112.388C59.9234 112.407 59.8033 112.401 59.7306 112.367C59.664 112.324 59.6121 112.217 59.5749 112.045C59.5563 111.959 59.5614 111.831 59.5902 111.661C59.6268 111.489 59.7115 111.389 59.8445 111.36L67.8806 109.624C68.0135 109.595 68.1282 109.652 68.2246 109.795C68.3288 109.936 68.3902 110.05 68.4087 110.136C68.4713 110.425 68.3735 110.598 68.1154 110.653C67.6696 110.75 67.2853 110.866 66.9625 111.001C66.6398 111.136 66.3983 111.307 66.2383 111.513C66.0844 111.71 66.0387 111.954 66.1013 112.243L68.7886 124.678C68.8714 125.062 69.0263 125.286 69.2533 125.352C69.4786 125.409 69.736 125.407 70.0253 125.344L73.2398 124.65C73.6074 124.57 73.9254 124.28 74.1939 123.78C74.4685 123.271 74.6916 122.674 74.8631 121.99C75.0424 121.305 75.1651 120.66 75.2311 120.057C75.2476 119.906 75.3594 119.779 75.5666 119.677C75.7799 119.566 75.9491 119.496 76.0742 119.469C76.2228 119.437 76.3829 119.439 76.5546 119.476C76.7245 119.505 76.816 119.587 76.8291 119.724L77.2499 125.023L63.5592 127.982ZM92.1629 106.697L93.9496 115.078C94.2285 116.369 94.2177 117.55 93.9172 118.622C93.6228 119.684 93.06 120.583 92.2285 121.32C91.3954 122.048 90.3102 122.557 88.9728 122.846C87.5025 123.164 86.1368 123.246 84.8757 123.093C83.613 122.932 82.5389 122.431 81.6533 121.591C80.7677 120.751 80.139 119.471 79.7672 117.75L78.0398 109.7C77.9671 109.364 77.8248 109.141 77.6128 109.031C77.3991 108.913 77.1582 108.859 76.8899 108.868C76.6278 108.867 76.3739 108.885 76.128 108.922C75.9604 108.942 75.8402 108.935 75.7675 108.902C75.7009 108.859 75.6491 108.751 75.6119 108.579C75.5933 108.493 75.5984 108.365 75.6271 108.195C75.6637 108.024 75.7485 107.923 75.8815 107.895L83.3192 106.287C83.4522 106.259 83.5669 106.316 83.6632 106.459C83.7674 106.6 83.8288 106.713 83.8474 106.799C83.9049 107.065 83.8071 107.238 83.5541 107.317C83.2915 107.39 83.0254 107.485 82.7557 107.6C82.486 107.716 82.2643 107.846 82.0908 107.989C81.925 108.132 81.8608 108.289 81.8979 108.461L83.7698 117.18C84.1974 119.159 84.815 120.482 85.6226 121.151C86.4302 121.82 87.4831 122.014 88.7814 121.733C89.9389 121.483 90.8225 121.026 91.4322 120.362C92.0419 119.698 92.4248 118.932 92.5808 118.063C92.7431 117.185 92.7278 116.3 92.5352 115.409L90.6845 106.845C90.627 106.579 90.4549 106.407 90.168 106.33C89.8795 106.245 89.5651 106.211 89.2248 106.227C88.8906 106.233 88.6115 106.249 88.3874 106.273C88.2198 106.293 88.0997 106.286 88.0269 106.252C87.9604 106.209 87.9085 106.102 87.8713 105.93C87.8527 105.844 87.8578 105.716 87.8866 105.546C87.9232 105.374 88.0079 105.274 88.1409 105.245L93.6195 104.061C93.7525 104.033 93.8671 104.09 93.9635 104.233C94.0677 104.374 94.1291 104.487 94.1477 104.574C94.2085 104.855 94.1107 105.028 93.8543 105.091C93.2572 105.245 92.8038 105.457 92.4941 105.729C92.1922 105.999 92.0818 106.322 92.1629 106.697ZM99.6336 120.186C99.5007 120.215 99.3821 120.159 99.2779 120.017C99.1815 119.875 99.124 119.76 99.1054 119.674C99.0497 119.416 99.1475 119.243 99.3988 119.156C99.7066 119.065 100.012 118.962 100.314 118.848C100.617 118.733 100.858 118.579 101.037 118.385C101.222 118.181 101.279 117.915 101.208 117.586L98.5465 105.268C98.4738 104.932 98.3041 104.715 98.0374 104.617C97.7689 104.511 97.4654 104.471 97.1268 104.495C96.7865 104.511 96.4699 104.542 96.1772 104.589C96.0095 104.609 95.8894 104.602 95.8167 104.569C95.7501 104.526 95.6982 104.419 95.661 104.246C95.6424 104.16 95.6484 104.036 95.6788 103.874C95.7154 103.703 95.7993 103.599 95.9306 103.562L103.439 101.939L103.451 101.998L109.744 112.083L111.346 101.311C111.361 101.193 111.368 101.016 111.366 100.779C111.364 100.542 111.349 100.361 111.322 100.236L118.091 98.773C118.224 98.7443 118.339 98.8014 118.435 98.9443C118.54 99.0855 118.601 99.1991 118.62 99.2851C118.675 99.5432 118.578 99.7158 118.326 99.8029C117.934 99.9203 117.566 100.074 117.222 100.262C116.877 100.444 116.732 100.663 116.787 100.921L119.53 113.615C119.603 113.951 119.753 114.172 119.981 114.279C120.209 114.385 120.464 114.432 120.748 114.42C121.04 114.406 121.306 114.389 121.548 114.37C121.715 114.35 121.832 114.358 121.897 114.393C121.969 114.426 122.025 114.533 122.064 114.713C122.083 114.799 122.074 114.928 122.037 115.099C122.008 115.269 121.927 115.368 121.794 115.397L114.228 117.032C114.095 117.061 113.976 117.005 113.872 116.864C113.776 116.721 113.718 116.606 113.699 116.52C113.644 116.262 113.741 116.09 113.993 116.003C114.238 115.925 114.496 115.832 114.768 115.725C115.037 115.609 115.259 115.479 115.433 115.335C115.614 115.19 115.686 115.031 115.649 114.859L112.787 101.614L112.458 101.685L110.075 117.93L109.406 118.074L100.011 104.375L99.5653 104.471L102.344 117.329C102.417 117.665 102.599 117.884 102.891 117.984C103.181 118.077 103.507 118.109 103.869 118.08C104.231 118.051 104.556 118.017 104.842 117.98C105.01 117.96 105.126 117.968 105.191 118.003C105.264 118.036 105.319 118.143 105.358 118.323C105.377 118.409 105.368 118.538 105.331 118.709C105.303 118.879 105.222 118.979 105.089 119.007L99.6336 120.186ZM124.645 114.781C124.512 114.81 124.394 114.754 124.289 114.612C124.193 114.47 124.136 114.355 124.117 114.269C124.061 114.011 124.159 113.838 124.41 113.751C124.779 113.639 125.14 113.491 125.493 113.309C125.853 113.116 126.005 112.891 125.949 112.633L123.218 99.9369C123.145 99.6006 122.991 99.3801 122.756 99.2754C122.526 99.1613 122.27 99.1103 121.986 99.1225C121.7 99.1269 121.435 99.1475 121.189 99.1843C121.021 99.2041 120.901 99.1974 120.828 99.1639C120.762 99.121 120.71 99.0135 120.673 98.8415C120.654 98.7554 120.659 98.6275 120.688 98.4575C120.724 98.2859 120.809 98.1857 120.942 98.157L128.392 96.5471C128.525 96.5184 128.639 96.5755 128.736 96.7184C128.84 96.8596 128.901 96.9732 128.92 97.0592C128.976 97.3173 128.878 97.4899 128.627 97.577C128.234 97.6945 127.866 97.8477 127.522 98.0366C127.177 98.2177 127.032 98.4373 127.088 98.6954L129.819 111.391C129.892 111.728 130.043 111.953 130.272 112.067C130.507 112.172 130.767 112.218 131.051 112.206C131.343 112.192 131.608 112.171 131.848 112.144C132.016 112.124 132.132 112.132 132.197 112.167C132.27 112.2 132.325 112.307 132.364 112.487C132.383 112.573 132.374 112.702 132.337 112.873C132.309 113.043 132.228 113.143 132.095 113.171L124.645 114.781ZM134.652 112.619C134.519 112.647 134.401 112.591 134.296 112.45C134.2 112.307 134.143 112.193 134.124 112.107C134.068 111.848 134.166 111.676 134.417 111.589C134.663 111.511 134.947 111.409 135.272 111.281C135.604 111.152 135.885 110.993 136.114 110.805C136.342 110.608 136.429 110.385 136.375 110.134L133.819 98.309C133.747 97.9727 133.546 97.709 133.218 97.5179C132.889 97.3189 132.531 97.1793 132.146 97.0989C131.76 97.0186 131.443 96.9928 131.196 97.0218C131.028 97.0416 130.908 97.0348 130.835 97.0014C130.769 96.9585 130.717 96.851 130.68 96.679C130.661 96.5929 130.666 96.4649 130.695 96.295C130.731 96.1234 130.816 96.0232 130.949 95.9945L136.674 94.7573L148.59 103.872L148.731 103.842L146.786 94.8437C146.714 94.5074 146.532 94.2928 146.242 94.2C145.952 94.1072 145.634 94.0736 145.287 94.0994C144.947 94.1156 144.653 94.1382 144.405 94.1671C144.238 94.187 144.118 94.1802 144.045 94.1468C143.978 94.1039 143.926 93.9964 143.889 93.8243C143.871 93.7383 143.876 93.6103 143.905 93.4404C143.941 93.2688 144.026 93.1686 144.159 93.1398L149.731 91.9356C149.864 91.9069 149.979 91.964 150.075 92.1069C150.179 92.2481 150.241 92.3617 150.259 92.4477C150.315 92.7058 150.217 92.8784 149.966 92.9655C149.737 93.0396 149.465 93.1474 149.152 93.2888C148.846 93.4285 148.589 93.5988 148.378 93.7998C148.166 93.993 148.089 94.2225 148.146 94.4884L151.001 107.698C151.033 107.847 151.068 107.97 151.106 108.068C151.141 108.159 151.192 108.316 151.256 108.539C151.346 108.839 151.243 109.083 150.948 109.269C150.654 109.464 150.386 109.587 150.143 109.639C149.862 109.7 149.632 109.66 149.454 109.518L135.737 98.9998L135.537 99.0429L137.832 109.66C137.904 109.996 138.105 110.207 138.435 110.291C138.764 110.375 139.121 110.4 139.507 110.366C139.892 110.332 140.206 110.305 140.447 110.286C140.615 110.266 140.731 110.273 140.796 110.309C140.869 110.342 140.925 110.449 140.963 110.629C140.982 110.715 140.973 110.843 140.936 111.015C140.908 111.185 140.827 111.284 140.694 111.313L134.652 112.619ZM154.126 108.41C154.001 108.437 153.891 108.4 153.795 108.298C153.698 108.188 153.632 108.055 153.598 107.898C153.559 107.718 153.566 107.598 153.619 107.538C153.663 107.479 153.766 107.424 153.927 107.373C154.117 107.307 154.325 107.246 154.55 107.189C154.783 107.13 154.989 107.024 155.169 106.871C155.355 106.708 155.474 106.445 155.527 106.082L157.923 89.8953L160.668 89.3021L169.475 103.067C169.684 103.39 169.911 103.587 170.155 103.657C170.406 103.718 170.652 103.722 170.895 103.669C171.145 103.615 171.366 103.58 171.559 103.562C171.727 103.543 171.843 103.55 171.908 103.585C171.981 103.619 172.037 103.725 172.075 103.905C172.094 103.991 172.085 104.12 172.048 104.292C172.02 104.462 171.939 104.561 171.806 104.59L164.509 106.167C164.376 106.195 164.257 106.139 164.153 105.998C164.057 105.855 163.999 105.741 163.981 105.654C163.925 105.396 164.023 105.224 164.274 105.137C164.73 105.014 165.091 104.919 165.355 104.854C165.617 104.781 165.73 104.658 165.693 104.486C165.681 104.432 165.656 104.372 165.617 104.306L163.035 100.198L163.71 100.482L157.255 101.865L157.73 101.222L157.077 106.152C157.065 106.212 157.064 106.265 157.074 106.312C157.115 106.5 157.305 106.565 157.645 106.508C157.984 106.451 158.395 106.383 158.878 106.303C159.142 106.278 159.303 106.395 159.358 106.653C159.377 106.739 159.368 106.868 159.331 107.04C159.303 107.21 159.222 107.309 159.089 107.338L154.126 108.41ZM157.752 100.812L157.533 100.761L163.105 99.5567L162.764 99.7409L158.911 92.7639L157.752 100.812Z" fill="white" fill-opacity="0.76"/>
</g>
<defs>
<filter id="filter0_g_5_22" x="-27.462" y="0.746506" width="286.595" height="214.551" filterUnits="userSpaceOnUse" color-interpolation-filters="sRGB">
<feFlood flood-opacity="0" result="BackgroundImageFix"/>
<feBlend mode="normal" in="SourceGraphic" in2="BackgroundImageFix" result="shape"/>
<feTurbulence type="fractalNoise" baseFrequency="0.046055421233177185 0.046055421233177185" numOctaves="3" seed="7934" />
<feDisplacementMap in="shape" scale="173.70376586914062" xChannelSelector="R" yChannelSelector="G" result="displacedImage" width="100%" height="100%" />
<feMerge result="effect1_texture_5_22">
<feMergeNode in="displacedImage"/>
</feMerge>
</filter>
</defs>
</svg>
